HIERARCHY
ROOT mixamorig:Hips
{
	OFFSET -0.000008 104.274872 1.554316
	CHANNELS 6 Xposition Yposition Zposition Xrotation Yrotation Zrotation
	JOINT mixamorig:Spine
	{
		OFFSET -0.000005 10.181595 0.131519
		CHANNELS 6 Xposition Yposition Zposition Xrotation Yrotation Zrotation
		JOINT mixamorig:Spine1
		{
			OFFSET -0.000000 9.893959 -1.470707
			CHANNELS 6 Xposition Yposition Zposition Xrotation Yrotation Zrotation
			JOINT mixamorig:Spine2
			{
				OFFSET -0.000000 9.220757 -1.370641
				CHANNELS 6 Xposition Yposition Zposition Xrotation Yrotation Zrotation
				JOINT mixamorig:Neck
				{
					OFFSET 0.000001 16.740417 -2.049036
					CHANNELS 6 Xposition Yposition Zposition Xrotation Yrotation Zrotation
					JOINT mixamorig:Head
					{
						OFFSET 0.000000 9.617874 1.685006
						CHANNELS 6 Xposition Yposition Zposition Xrotation Yrotation Zrotation
						JOINT mixamorig:HeadTop_End
						{
							OFFSET 0.000002 22.037354 7.501101
							CHANNELS 6 Xposition Yposition Zposition Xrotation Yrotation Zrotation
							End Site
							{
								OFFSET 0.000168 2310.654297 -282.823242
							}
						}
					}
				}
				JOINT mixamorig:RightShoulder
				{
					OFFSET -4.569970 11.014908 -2.160885
					CHANNELS 6 Xposition Yposition Zposition Xrotation Yrotation Zrotation
					JOINT mixamorig:RightArm
					{
						OFFSET -10.592851 -0.524811 -2.232101
						CHANNELS 6 Xposition Yposition Zposition Xrotation Yrotation Zrotation
						JOINT mixamorig:RightForeArm
						{
							OFFSET -27.841511 0.000031 -0.000004
							CHANNELS 6 Xposition Yposition Zposition Xrotation Yrotation Zrotation
							JOINT mixamorig:RightHand
							{
								OFFSET -28.328831 -0.000015 0.000015
								CHANNELS 6 Xposition Yposition Zposition Xrotation Yrotation Zrotation
								JOINT mixamorig:RightHandThumb1
								{
									OFFSET -2.464806 -1.573990 2.681852
									CHANNELS 6 Xposition Yposition Zposition Xrotation Yrotation Zrotation
									JOINT mixamorig:RightHandThumb2
									{
										OFFSET -3.215179 -1.872803 1.924282
										CHANNELS 6 Xposition Yposition Zposition Xrotation Yrotation Zrotation
										JOINT mixamorig:RightHandThumb3
										{
											OFFSET -2.654831 -1.527969 1.512609
											CHANNELS 6 Xposition Yposition Zposition Xrotation Yrotation Zrotation
											JOINT mixamorig:RightHandThumb4
											{
												OFFSET -2.018814 -1.152008 1.108052
												CHANNELS 6 Xposition Yposition Zposition Xrotation Yrotation Zrotation
												End Site
												{
													OFFSET -188.809540 -114.533607 132.431396
												}
											}
										}
									}
								}
								JOINT mixamorig:RightHandIndex1
								{
									OFFSET -9.108284 -0.517868 2.259835
									CHANNELS 6 Xposition Yposition Zposition Xrotation Yrotation Zrotation
									JOINT mixamorig:RightHandIndex2
									{
										OFFSET -3.699989 0.000000 0.001215
										CHANNELS 6 Xposition Yposition Zposition Xrotation Yrotation Zrotation
										JOINT mixamorig:RightHandIndex3
										{
											OFFSET -2.850006 0.000031 -0.000522
											CHANNELS 6 Xposition Yposition Zposition Xrotation Yrotation Zrotation
											JOINT mixamorig:RightHandIndex4
											{
												OFFSET -2.772186 -0.000015 -0.000020
												CHANNELS 6 Xposition Yposition Zposition Xrotation Yrotation Zrotation
												End Site
												{
													OFFSET -277.218445 0.000000 -0.050231
												}
											}
										}
									}
								}
								JOINT mixamorig:RightHandMiddle1
								{
									OFFSET -9.532516 -0.000031 -0.000023
									CHANNELS 6 Xposition Yposition Zposition Xrotation Yrotation Zrotation
									JOINT mixamorig:RightHandMiddle2
									{
										OFFSET -3.700005 -0.000015 0.003713
										CHANNELS 6 Xposition Yposition Zposition Xrotation Yrotation Zrotation
										JOINT mixamorig:RightHandMiddle3
										{
											OFFSET -2.949974 0.000015 -0.002054
											CHANNELS 6 Xposition Yposition Zposition Xrotation Yrotation Zrotation
											JOINT mixamorig:RightHandMiddle4
											{
												OFFSET -2.946640 0.000000 -0.000156
												CHANNELS 6 Xposition Yposition Zposition Xrotation Yrotation Zrotation
												End Site
												{
													OFFSET -294.664337 0.000000 -0.113670
												}
											}
										}
									}
								}
								JOINT mixamorig:RightHandRing1
								{
									OFFSET -9.103600 -0.043076 -1.865134
									CHANNELS 6 Xposition Yposition Zposition Xrotation Yrotation Zrotation
									JOINT mixamorig:RightHandRing2
									{
										OFFSET -3.379288 0.000000 -0.001055
										CHANNELS 6 Xposition Yposition Zposition Xrotation Yrotation Zrotation
										JOINT mixamorig:RightHandRing3
										{
											OFFSET -2.889687 -0.000015 0.000379
											CHANNELS 6 Xposition Yposition Zposition Xrotation Yrotation Zrotation
											JOINT mixamorig:RightHandRing4
											{
												OFFSET -2.638809 -0.000015 0.000941
												CHANNELS 6 Xposition Yposition Zposition Xrotation Yrotation Zrotation
												End Site
												{
													OFFSET -263.880371 0.000000 0.516020
												}
											}
										}
									}
								}
								JOINT mixamorig:RightHandPinky1
								{
									OFFSET -8.076683 -0.486710 -3.806280
									CHANNELS 6 Xposition Yposition Zposition Xrotation Yrotation Zrotation
									JOINT mixamorig:RightHandPinky2
									{
										OFFSET -3.600014 -0.000015 -0.003747
										CHANNELS 6 Xposition Yposition Zposition Xrotation Yrotation Zrotation
										JOINT mixamorig:RightHandPinky3
										{
											OFFSET -2.099983 0.000000 -0.005739
											CHANNELS 6 Xposition Yposition Zposition Xrotation Yrotation Zrotation
											JOINT mixamorig:RightHandPinky4
											{
												OFFSET -2.115768 -0.000031 -0.003680
												CHANNELS 6 Xposition Yposition Zposition Xrotation Yrotation Zrotation
												End Site
												{
													OFFSET -211.577087 0.000000 -0.350686
												}
											}
										}
									}
								}
							}
						}
					}
				}
				JOINT mixamorig:LeftShoulder
				{
					OFFSET 4.570447 11.014725 -2.160855
					CHANNELS 6 Xposition Yposition Zposition Xrotation Yrotation Zrotation
					JOINT mixamorig:LeftArm
					{
						OFFSET 10.592371 -0.524597 -2.232119
						CHANNELS 6 Xposition Yposition Zposition Xrotation Yrotation Zrotation
						JOINT mixamorig:LeftForeArm
						{
							OFFSET 27.841532 -0.000031 0.000026
							CHANNELS 6 Xposition Yposition Zposition Xrotation Yrotation Zrotation
							JOINT mixamorig:LeftHand
							{
								OFFSET 28.328846 -0.000061 0.000022
								CHANNELS 6 Xposition Yposition Zposition Xrotation Yrotation Zrotation
								JOINT mixamorig:LeftHandThumb1
								{
									OFFSET 2.466141 -1.576172 2.681732
									CHANNELS 6 Xposition Yposition Zposition Xrotation Yrotation Zrotation
									JOINT mixamorig:LeftHandThumb2
									{
										OFFSET 3.217812 -1.872070 1.916482
										CHANNELS 6 Xposition Yposition Zposition Xrotation Yrotation Zrotation
										JOINT mixamorig:LeftHandThumb3
										{
											OFFSET 2.656029 -1.528778 1.514513
											CHANNELS 6 Xposition Yposition Zposition Xrotation Yrotation Zrotation
											JOINT mixamorig:LeftHandThumb4
											{
												OFFSET 2.020889 -1.154053 1.115139
												CHANNELS 6 Xposition Yposition Zposition Xrotation Yrotation Zrotation
												End Site
												{
													OFFSET 190.885437 -115.081749 130.048782
												}
											}
										}
									}
								}
								JOINT mixamorig:LeftHandIndex1
								{
									OFFSET 9.109314 -0.518021 2.259871
									CHANNELS 6 Xposition Yposition Zposition Xrotation Yrotation Zrotation
									JOINT mixamorig:LeftHandIndex2
									{
										OFFSET 3.699989 0.000000 -0.000322
										CHANNELS 6 Xposition Yposition Zposition Xrotation Yrotation Zrotation
										JOINT mixamorig:LeftHandIndex3
										{
											OFFSET 2.850006 0.000000 0.000352
											CHANNELS 6 Xposition Yposition Zposition Xrotation Yrotation Zrotation
											JOINT mixamorig:LeftHandIndex4
											{
												OFFSET 2.774864 -0.000031 -0.000027
												CHANNELS 6 Xposition Yposition Zposition Xrotation Yrotation Zrotation
												End Site
												{
													OFFSET 277.486267 0.000000 -0.009857
												}
											}
										}
									}
								}
								JOINT mixamorig:LeftHandMiddle1
								{
									OFFSET 9.533394 0.000061 0.000044
									CHANNELS 6 Xposition Yposition Zposition Xrotation Yrotation Zrotation
									JOINT mixamorig:LeftHandMiddle2
									{
										OFFSET 3.699989 -0.000015 -0.000231
										CHANNELS 6 Xposition Yposition Zposition Xrotation Yrotation Zrotation
										JOINT mixamorig:LeftHandMiddle3
										{
											OFFSET 2.949997 -0.000015 -0.000059
											CHANNELS 6 Xposition Yposition Zposition Xrotation Yrotation Zrotation
											JOINT mixamorig:LeftHandMiddle4
											{
												OFFSET 2.952896 0.000031 0.000063
												CHANNELS 6 Xposition Yposition Zposition Xrotation Yrotation Zrotation
												End Site
												{
													OFFSET 295.289337 0.000000 0.022810
												}
											}
										}
									}
								}
								JOINT mixamorig:LeftHandRing1
								{
									OFFSET 9.104523 -0.042999 -1.865074
									CHANNELS 6 Xposition Yposition Zposition Xrotation Yrotation Zrotation
									JOINT mixamorig:LeftHandRing2
									{
										OFFSET 3.150009 -0.000031 0.000043
										CHANNELS 6 Xposition Yposition Zposition Xrotation Yrotation Zrotation
										JOINT mixamorig:LeftHandRing3
										{
											OFFSET 2.949982 -0.000015 0.000040
											CHANNELS 6 Xposition Yposition Zposition Xrotation Yrotation Zrotation
											JOINT mixamorig:LeftHandRing4
											{
												OFFSET 2.644348 0.000000 0.000057
												CHANNELS 6 Xposition Yposition Zposition Xrotation Yrotation Zrotation
												End Site
												{
													OFFSET 264.434631 0.000000 0.012105
												}
											}
										}
									}
								}
								JOINT mixamorig:LeftHandPinky1
								{
									OFFSET 8.077789 -0.486847 -3.806259
									CHANNELS 6 Xposition Yposition Zposition Xrotation Yrotation Zrotation
									JOINT mixamorig:LeftHandPinky2
									{
										OFFSET 3.599953 0.000031 0.014727
										CHANNELS 6 Xposition Yposition Zposition Xrotation Yrotation Zrotation
										JOINT mixamorig:LeftHandPinky3
										{
											OFFSET 2.100021 0.000015 0.007705
											CHANNELS 6 Xposition Yposition Zposition Xrotation Yrotation Zrotation
											JOINT mixamorig:LeftHandPinky4
											{
												OFFSET 2.125504 0.000031 0.007517
												CHANNELS 6 Xposition Yposition Zposition Xrotation Yrotation Zrotation
												End Site
												{
													OFFSET 212.550781 0.000000 0.625752
												}
											}
										}
									}
								}
							}
						}
					}
				}
			}
		}
	}
	JOINT mixamorig:RightUpLeg
	{
		OFFSET -8.207787 -6.751648 -1.599560
		CHANNELS 6 Xposition Yposition Zposition Xrotation Yrotation Zrotation
		JOINT mixamorig:RightLeg
		{
			OFFSET -0.000002 -44.370117 0.345942
			CHANNELS 6 Xposition Yposition Zposition Xrotation Yrotation Zrotation
			JOINT mixamorig:RightFoot
			{
				OFFSET 0.000003 -44.423679 -3.043532
				CHANNELS 6 Xposition Yposition Zposition Xrotation Yrotation Zrotation
				JOINT mixamorig:RightToeBase
				{
					OFFSET -0.000002 -8.728671 10.710558
					CHANNELS 6 Xposition Yposition Zposition Xrotation Yrotation Zrotation
					JOINT mixamorig:RightToe_End
					{
						OFFSET -0.000001 -0.000679 9.278119
						CHANNELS 6 Xposition Yposition Zposition Xrotation Yrotation Zrotation
						End Site
						{
							OFFSET 0.000000 -0.067690 927.812134
						}
					}
				}
			}
		}
	}
	JOINT mixamorig:LeftUpLeg
	{
		OFFSET 8.207793 -6.751686 -1.599556
		CHANNELS 6 Xposition Yposition Zposition Xrotation Yrotation Zrotation
		JOINT mixamorig:LeftLeg
		{
			OFFSET -0.000004 -44.370014 0.346954
			CHANNELS 6 Xposition Yposition Zposition Xrotation Yrotation Zrotation
			JOINT mixamorig:LeftFoot
			{
				OFFSET -0.000001 -44.423672 -3.044401
				CHANNELS 6 Xposition Yposition Zposition Xrotation Yrotation Zrotation
				JOINT mixamorig:LeftToeBase
				{
					OFFSET -0.000002 -8.728669 10.710558
					CHANNELS 6 Xposition Yposition Zposition Xrotation Yrotation Zrotation
					JOINT mixamorig:LeftToe_End
					{
						OFFSET -0.000003 -0.000679 9.278133
						CHANNELS 6 Xposition Yposition Zposition Xrotation Yrotation Zrotation
						End Site
						{
							OFFSET 0.000000 -0.068021 927.813477
						}
					}
				}
			}
		}
	}
}
MOTION
Frames: 3
Frame Time: 0.033333
0.000006 104.270477 1.554256 0.000010 0.000003 -0.000113 -0.000005 10.181587 0.131522 0.000001 -0.000003 0.000084 -0.000000 9.893967 -1.470711 0.000001 0.000000 -0.000000 -0.000000 9.220802 -1.370642 0.000000 -0.000000 -0.000000 0.000001 16.740433 -2.049030 0.000000 -0.000000 -0.000000 0.000000 9.617859 1.685014 0.000000 0.000000 0.000000 0.000002 22.037384 7.501101 0.000000 -0.000000 0.000000 -4.569968 11.014880 -2.160881 0.000008 0.000001 -0.000038 -10.592870 -0.524776 -2.231898 70.356822 33.844072 -24.207365 -27.841534 -0.000006 0.000550 -54.634147 114.342366 77.360860 -28.328814 0.000021 0.000031 -0.000321 -0.000043 0.000007 -2.464409 -1.573851 2.682350 -39.106012 -156.476219 9.371740 -3.215268 -1.872533 1.924652 153.788375 33.045985 13.606972 -2.654949 -1.527876 1.513068 147.878705 26.948168 -35.180945 -2.018835 -1.151998 1.108053 -0.000003 0.000000 0.000005 -9.108380 -0.517560 2.260149 105.690006 16.405841 -21.602242 -3.700055 0.000315 0.001544 101.521698 13.280017 -16.195395 -2.850069 0.000372 -0.000246 99.446168 10.438051 -12.303776 -2.772148 -0.000014 -0.000022 -0.000001 0.000001 -0.000000 -9.532590 0.000261 0.000263 98.515227 18.411118 -21.477530 -3.700090 0.000330 0.003988 96.500157 12.218398 -13.570380 -2.950056 0.000321 -0.001793 98.817538 11.083526 -12.912609 -2.946640 0.000000 -0.000155 -0.000001 -0.000001 -0.000000 -9.103699 -0.042774 -1.864844 96.099703 20.134284 -22.295629 -3.379332 0.000308 -0.000796 95.329722 8.619760 -9.476467 -2.889746 0.000354 0.000671 102.840410 5.558357 -7.020797 -2.638821 -0.000012 0.000938 -0.000000 -0.000001 -0.000004 -8.076764 -0.486389 -3.806019 90.490793 20.659017 -20.676470 -3.600029 0.000284 -0.003498 93.593085 8.537285 -8.709740 -2.099997 0.000320 -0.005460 98.290739 4.089779 -4.480295 -2.115777 -0.000037 -0.003680 0.000002 -0.000001 -0.000002 4.570446 11.014691 -2.160851 -0.000018 0.000010 -0.000021 10.592520 -0.524531 -2.232399 66.983836 -61.373758 42.877359 27.841717 -0.000080 -0.000078 239.313327 -70.162941 258.064436 28.328840 -0.000013 0.000017 0.000021 -0.000090 -0.000000 2.466084 -1.576187 2.681910 14.094294 115.466288 -64.284190 3.217837 -1.871985 1.916530 -108.073434 36.276689 48.245188 2.656093 -1.528666 1.514607 -113.090126 15.868425 41.483171 2.020887 -1.154086 1.115145 -0.000001 0.000001 0.000004 9.109200 -0.517776 2.260117 -119.662182 -21.067505 -35.469586 3.699707 0.000197 -0.000180 -162.819320 -20.523568 -100.306212 2.850084 0.000114 0.000381 166.411412 -14.751916 94.740454 2.774864 -0.000047 -0.000021 0.000004 -0.000001 0.000000 9.533246 0.000042 0.000141 179.964966 -16.859624 179.715145 3.700021 0.000234 -0.000376 97.449362 -5.769872 6.568959 2.950006 0.000081 -0.000208 49.141189 3.186907 -1.456357 2.952873 -0.000031 0.000063 -0.000001 0.000000 0.000000 9.104576 -0.043000 -1.865019 172.299978 -15.794006 128.251090 3.149957 0.000223 -0.000139 79.805727 11.190974 -9.365996 2.949939 0.000063 -0.000124 33.347603 18.240512 -5.505538 2.644327 0.000015 0.000060 0.000000 -0.000003 -0.000000 8.077885 -0.486805 -3.806186 170.181021 -12.627526 109.021219 3.599889 0.000268 0.014548 92.949094 12.278057 -12.580308 2.099944 0.000118 0.007504 52.665652 20.565679 -10.160174 2.125499 0.000001 0.007515 -0.000000 0.000000 -0.000001 -8.207786 -6.751667 -1.599560 -0.077001 -0.000003 0.000080 -0.000002 -44.370110 0.345938 0.153719 -0.000000 -0.000000 0.000000 -44.423679 -3.043532 -0.076700 0.000000 -0.000002 -0.000006 -8.728667 10.710559 -0.000009 -0.000000 -0.000000 -0.000001 -0.000679 9.278123 0.000000 -0.000000 -0.000000 8.207792 -6.751710 -1.599556 -0.074518 -0.000003 0.000081 -0.000002 -44.370014 0.346960 0.148822 0.000002 0.000000 -0.000001 -44.423664 -3.044403 -0.074314 0.000000 -0.000002 -0.000004 -8.728671 10.710558 0.000007 -0.000000 -0.000000 0.000000 -0.000680 9.278137 -0.000000 0.000000 -0.000001 
0.000006 104.270477 1.554256 0.000010 0.000003 -0.000113 -0.000005 10.181587 0.131522 0.000001 -0.000003 0.000084 -0.000000 9.893967 -1.470711 0.000001 0.000000 -0.000000 -0.000000 9.220802 -1.370642 0.000000 -0.000000 -0.000000 0.000001 16.740433 -2.049030 0.000000 -0.000000 -0.000000 0.000000 9.617859 1.685014 0.000000 0.000000 0.000000 0.000002 22.037384 7.501101 0.000000 -0.000000 0.000000 -4.569968 11.014880 -2.160881 0.000008 0.000001 -0.000038 -10.592876 -0.524766 -2.231901 70.040407 29.759377 -21.093690 -27.841528 0.000020 0.000534 -55.096018 114.126375 77.681019 -28.328817 0.000009 0.000024 -0.000319 -0.000046 0.000006 -2.464428 -1.573860 2.682357 -38.194554 -156.000523 11.177293 -3.215263 -1.872562 1.924649 153.546177 33.070103 14.071354 -2.654974 -1.527889 1.513078 147.542167 26.976812 -35.513548 -2.018835 -1.151986 1.108068 -0.000002 0.000003 0.000005 -9.108397 -0.517562 2.260145 105.332309 16.402836 -21.462077 -3.700065 0.000314 0.001538 101.401501 13.366136 -16.265715 -2.850093 0.000371 -0.000251 99.624832 10.579414 -12.509226 -2.772149 0.000000 -0.000018 0.000000 0.000001 0.000000 -9.532619 0.000262 0.000266 98.100470 18.880632 -21.861607 -3.700059 0.000323 0.003980 96.307320 12.640240 -13.994135 -2.950059 0.000338 -0.001768 98.862180 11.212958 -13.073353 -2.946623 0.000003 -0.000154 0.000001 0.000000 -0.000001 -9.103705 -0.042770 -1.864843 95.811168 20.422394 -22.502425 -3.379340 0.000306 -0.000802 95.089948 8.868718 -9.708770 -2.889747 0.000355 0.000668 102.696375 5.570846 -7.018359 -2.638819 -0.000016 0.000941 -0.000000 -0.000000 -0.000002 -8.076778 -0.486391 -3.806001 90.405524 20.776117 -20.764118 -3.600045 0.000288 -0.003499 93.600065 8.616185 -8.794394 -2.100003 0.000327 -0.005442 98.268739 4.028199 -4.407649 -2.115766 -0.000043 -0.003681 -0.000002 0.000000 -0.000004 4.570446 11.014691 -2.160851 -0.000018 0.000010 -0.000021 10.592522 -0.524534 -2.232397 66.832417 -61.303270 42.710966 27.841717 -0.000071 -0.000084 238.796036 -70.681065 256.938712 28.328838 -0.000014 0.000038 0.000021 -0.000088 -0.000000 2.466083 -1.576186 2.681875 16.494593 113.494125 -65.673860 3.217840 -1.871984 1.916544 -104.687457 39.721262 47.566349 2.656090 -1.528717 1.514610 -108.211630 21.772763 41.987007 2.020888 -1.154084 1.115149 -0.000006 0.000003 0.000001 9.109223 -0.517766 2.260106 -119.934939 -20.281251 -34.373972 3.699716 0.000180 -0.000185 -164.197625 -19.082463 -100.897562 2.850161 0.000130 0.000390 166.571457 -12.605716 86.338584 2.774888 -0.000032 -0.000018 0.000001 0.000000 -0.000000 9.533248 0.000019 0.000130 180.265003 -16.255331 181.805934 3.700032 0.000242 -0.000374 100.425514 -5.530165 6.635302 2.949997 0.000090 -0.000207 55.980927 3.581632 -1.902860 2.952874 -0.000001 0.000064 -0.000001 0.000001 -0.000000 9.104637 -0.042968 -1.865028 170.154943 -14.946882 113.440180 3.149967 0.000219 -0.000171 79.784396 9.649987 -8.071108 2.949949 0.000072 -0.000111 38.961359 16.630336 -5.918919 2.644318 0.000044 0.000060 -0.000001 -0.000001 -0.000000 8.077929 -0.486762 -3.806221 168.040808 -11.423373 91.941156 3.599905 0.000266 0.014512 92.397932 10.891265 -11.003232 2.099952 0.000134 0.007516 54.316642 18.781290 -9.582007 2.125509 -0.000032 0.007512 0.000001 0.000002 -0.000002 -8.207786 -6.751667 -1.599560 -0.077001 -0.000003 0.000080 -0.000002 -44.370110 0.345938 0.153719 -0.000000 -0.000000 0.000000 -44.423679 -3.043532 -0.076700 0.000000 -0.000002 -0.000006 -8.728667 10.710559 -0.000009 -0.000000 -0.000000 -0.000001 -0.000679 9.278123 0.000000 -0.000000 -0.000000 8.207792 -6.751710 -1.599556 -0.074518 -0.000003 0.000081 -0.000002 -44.370014 0.346960 0.148822 0.000002 0.000000 -0.000001 -44.423664 -3.044403 -0.074314 0.000000 -0.000002 -0.000004 -8.728671 10.710558 0.000007 -0.000000 -0.000000 0.000000 -0.000680 9.278137 -0.000000 0.000000 -0.000001 
0.000006 104.270477 1.554256 0.000010 0.000003 -0.000113 -0.000005 10.181587 0.131522 0.000001 -0.000003 0.000084 -0.000000 9.893967 -1.470711 0.000001 0.000000 -0.000000 -0.000000 9.220802 -1.370642 0.000000 -0.000000 -0.000000 0.000001 16.740433 -2.049030 0.000000 -0.000000 -0.000000 0.000000 9.617859 1.685014 0.000000 0.000000 0.000000 0.000002 22.037384 7.501101 0.000000 -0.000000 0.000000 -4.569968 11.014880 -2.160881 0.000008 0.000001 -0.000038 -10.592877 -0.524767 -2.231905 70.207433 29.983151 -21.320458 -27.841526 0.000001 0.000542 -54.697477 113.387048 76.419052 -28.328831 0.000003 0.000029 -0.000321 -0.000044 0.000008 -2.464424 -1.573871 2.682360 -38.096265 -156.071380 11.420322 -3.215259 -1.872540 1.924637 153.370300 33.184717 15.035837 -2.654963 -1.527893 1.513071 147.820156 26.971543 -35.056482 -2.018834 -1.151997 1.108066 -0.000001 -0.000003 0.000002 -9.108388 -0.517561 2.260151 105.488010 16.389640 -21.504159 -3.700058 0.000318 0.001523 101.273134 13.198101 -16.025623 -2.850092 0.000368 -0.000246 99.115826 10.337061 -12.114526 -2.772187 -0.000000 -0.000017 -0.000000 -0.000002 0.000000 -9.532598 0.000253 0.000280 98.102588 18.815523 -21.787928 -3.700064 0.000329 0.003984 95.964738 12.500725 -13.756798 -2.950045 0.000348 -0.001793 98.319603 11.100954 -12.820655 -2.946623 -0.000000 -0.000159 -0.000002 0.000001 -0.000001 -9.103709 -0.042795 -1.864863 95.667434 20.485361 -22.516229 -3.379325 0.000323 -0.000807 94.779967 8.925170 -9.717753 -2.889747 0.000352 0.000671 102.455986 5.526360 -6.932981 -2.638803 -0.000029 0.000939 -0.000000 0.000000 -0.000002 -8.076761 -0.486400 -3.805999 90.388763 20.785126 -20.767224 -3.600043 0.000282 -0.003491 93.201319 8.686844 -8.807880 -2.100022 0.000328 -0.005469 98.000333 4.087273 -4.454578 -2.115786 -0.000070 -0.003678 -0.000001 0.000000 -0.000002 4.570446 11.014691 -2.160851 -0.000018 0.000010 -0.000021 10.592518 -0.524526 -2.232395 67.186932 -60.532231 42.374801 27.841717 -0.000072 -0.000089 238.865020 -70.422399 257.284702 28.328833 -0.000028 0.000023 0.000023 -0.000090 -0.000000 2.466081 -1.576190 2.681871 28.243054 112.052832 -77.131632 3.217818 -1.872003 1.916540 -95.861910 39.822086 41.802585 2.656088 -1.528723 1.514615 -101.503680 25.354731 39.956398 2.020887 -1.154083 1.115148 0.000002 0.000003 0.000004 9.109222 -0.517782 2.260109 -117.193192 -20.439247 -32.896305 3.699730 0.000257 -0.000183 -159.922118 -18.238185 -84.400661 2.850106 0.000068 0.000392 171.049589 -11.161615 102.599379 2.774873 -0.000044 -0.000015 0.000000 0.000000 -0.000001 9.533164 0.000109 0.000149 185.252325 -17.282030 213.559265 3.700025 0.000277 -0.000365 111.528595 -4.297344 6.307903 2.950005 0.000130 -0.000244 69.644782 6.289299 -4.375586 2.952859 -0.000013 0.000065 0.000006 -0.000002 -0.000001 9.104490 -0.043045 -1.865011 176.390796 -16.550793 155.566888 3.149960 0.000251 -0.000144 91.348876 9.350417 -9.570869 2.949936 0.000112 -0.000157 49.440229 18.414772 -8.535243 2.644326 0.000018 0.000057 0.000000 0.000000 0.000003 8.077781 -0.486889 -3.806195 175.510604 -13.236146 147.406820 3.599913 0.000308 0.014547 102.774949 9.883735 -11.929642 2.099957 0.000132 0.007514 62.129709 18.168059 -10.854579 2.125502 0.000001 0.007514 -0.000001 0.000000 -0.000003 -8.207786 -6.751667 -1.599560 -0.077001 -0.000003 0.000080 -0.000002 -44.370110 0.345938 0.153719 -0.000000 -0.000000 0.000000 -44.423679 -3.043532 -0.076700 0.000000 -0.000002 -0.000006 -8.728667 10.710559 -0.000009 -0.000000 -0.000000 -0.000001 -0.000679 9.278123 0.000000 -0.000000 -0.000000 8.207792 -6.751710 -1.599556 -0.074518 -0.000003 0.000081 -0.000002 -44.370014 0.346960 0.148822 0.000002 0.000000 -0.000001 -44.423664 -3.044403 -0.074314 0.000000 -0.000002 -0.000004 -8.728671 10.710558 0.000007 -0.000000 -0.000000 0.000000 -0.000680 9.278137 -0.000000 0.000000 -0.000001 
